# xmcd
# 
# Track frame offsets:
#     187
#     22492
#     38527
#     61005
#     80892
#     103190
#     126210
#     147835
#     167372
#     193665
# 
# Disc length: 2995
# 
# Revision: 1
# Processed by: cddbd v1.5.2PL0 Copyright (c) Steve Scherf et al.
# Submitted via: BonkEnc v1.0.8
# 
DISCID=870bb10a
DTITLE=角松敏生 - [１９８１〜１９８７] DISK 2
DYEAR=1993
DGENRE=J-Pop
TTITLE0=GIRL IN THE BOX
TTITLE1=GET DOWN
TTITLE2=MERMAID PRINCESS
TTITLE3=NO END SUMMER
TTITLE4=ドアの向こう
TTITLE5=WE CAN DANCE
TTITLE6=THIS IS MY TRUTH
TTITLE7=SHE'S MY LADY
TTITLE8=RAMP IN
TTITLE9=STILL I'M IN LOVE WITH YOU
EXTD=YEAR: 1993
EXTT0=
EXTT1=
EXTT2=
EXTT3=
EXTT4=
EXTT5=
EXTT6=
EXTT7=
EXTT8=
EXTT9=
PLAYORDER=
